<svg width="19" height="19" viewBox="0 0 19 19" fill="none" xmlns="http://www.w3.org/2000/svg">
<path fill-rule="evenodd" clip-rule="evenodd" d="M5.33333 6.37512C5.33333 5.27005 5.77232 4.21024 6.55372 3.42884C7.33512 2.64744 8.39493 2.20845 9.5 2.20845C10.6051 2.20845 11.6649 2.64744 12.4463 3.42884C13.2277 4.21024 13.6667 5.27005 13.6667 6.37512C13.6667 7.48019 13.2277 8.54 12.4463 9.3214C11.6649 10.1028 10.6051 10.5418 9.5 10.5418C8.39493 10.5418 7.33512 10.1028 6.55372 9.3214C5.77232 8.54 5.33333 7.48019 5.33333 6.37512ZM13.4833 11.1907C14.4745 10.3708 15.1885 9.26501 15.528 8.02425C15.8674 6.78349 15.8157 5.46822 15.38 4.25792C14.9443 3.04761 14.1457 2.00123 13.0933 1.26157C12.0408 0.521912 10.7858 0.125 9.49948 0.125C8.21313 0.125 6.95811 0.521912 5.90568 1.26157C4.85326 2.00123 4.05469 3.04761 3.61896 4.25792C3.18323 5.46822 3.13156 6.78349 3.47101 8.02425C3.81045 9.26501 4.52447 10.3708 5.51562 11.1907C2.19375 12.3605 0.125 14.9657 0.125 17.8335C0.125 18.1097 0.234747 18.3747 0.430097 18.57C0.625447 18.7654 0.890399 18.8751 1.16667 18.8751C1.44293 18.8751 1.70789 18.7654 1.90324 18.57C2.09859 18.3747 2.20833 18.1097 2.20833 17.8335C2.20833 15.4689 4.66146 12.6251 9.5 12.6251C14.3385 12.6251 16.7917 15.4689 16.7917 17.8335C16.7917 18.1097 16.9014 18.3747 17.0968 18.57C17.2921 18.7654 17.5571 18.8751 17.8333 18.8751C18.1096 18.8751 18.3746 18.7654 18.5699 18.57C18.7653 18.3747 18.875 18.1097 18.875 17.8335C18.875 14.9657 16.8083 12.3605 13.4833 11.1907Z" fill="#201F25"/>
</svg>
