<svg width="26" height="17" viewBox="0 0 26 17" fill="none" xmlns="http://www.w3.org/2000/svg">
<path fill-rule="evenodd" clip-rule="evenodd" d="M16.7268 2.21317C15.898 2.21317 15.1031 2.54241 14.5171 3.12846C13.931 3.71452 13.6018 4.50937 13.6018 5.33817C13.6018 6.16697 13.931 6.96183 14.5171 7.54788C15.1031 8.13393 15.898 8.46317 16.7268 8.46317C17.5556 8.46317 18.3505 8.13393 18.9365 7.54788C19.5226 6.96183 19.8518 6.16697 19.8518 5.33817C19.8518 4.50937 19.5226 3.71452 18.9365 3.12846C18.3505 2.54241 17.5556 2.21317 16.7268 2.21317ZM11.5185 5.33817C11.5185 4.48917 11.726 3.65304 12.1231 2.90259C12.5201 2.15214 13.0946 1.51013 13.7964 1.03245C14.4983 0.554773 15.3063 0.255919 16.1501 0.161911C16.9939 0.0679031 17.8479 0.181591 18.6377 0.493075C19.4275 0.80456 20.1291 1.3044 20.6816 1.94906C21.2341 2.59373 21.6205 3.36367 21.8074 4.19185C21.9943 5.02004 21.9759 5.88135 21.7537 6.70078C21.5316 7.52021 21.1126 8.27293 20.5331 8.89338C22.3002 9.46825 23.828 10.6108 24.8789 12.1434C25.0255 12.3717 25.0772 12.6482 25.0231 12.914C24.9689 13.1799 24.8132 13.4141 24.589 13.5669C24.3648 13.7197 24.0899 13.779 23.8226 13.7322C23.5554 13.6854 23.317 13.5362 23.1581 13.3163C22.1414 11.8246 20.2872 10.5465 17.7685 10.5465C13.7747 10.5465 11.5185 13.7486 11.5185 15.7548C11.5185 16.0311 11.4087 16.2961 11.2134 16.4914C11.018 16.6868 10.7531 16.7965 10.4768 16.7965C10.2005 16.7965 9.93559 16.6868 9.74024 16.4914C9.54489 16.2961 9.43514 16.0311 9.43514 15.7548C9.43514 15.034 9.59972 14.2653 9.91431 13.508C9.83251 13.455 9.75853 13.3908 9.69451 13.3173C8.83931 12.3444 7.51222 11.5882 5.78931 11.5882C4.06639 11.5882 2.73931 12.3444 1.8841 13.3173C1.69892 13.514 1.44457 13.6311 1.17471 13.6438C0.904863 13.6565 0.640623 13.5639 0.437758 13.3855C0.234892 13.2071 0.109271 12.9569 0.0874046 12.6876C0.0655379 12.4184 0.149136 12.1511 0.320557 11.9423C0.935679 11.2423 1.68158 10.669 2.51639 10.2548C1.84942 9.60392 1.39162 8.76895 1.20146 7.8566C1.0113 6.94424 1.09743 5.99591 1.44882 5.13273C1.80022 4.26956 2.40094 3.53072 3.17426 3.0106C3.94758 2.49047 4.85839 2.21266 5.79035 2.21266C6.72231 2.21266 7.63312 2.49047 8.40644 3.0106C9.17975 3.53072 9.78048 4.26956 10.1319 5.13273C10.4833 5.99591 10.5694 6.94424 10.3792 7.8566C10.1891 8.76895 9.73128 9.60392 9.06431 10.2548C9.78697 10.6135 10.4438 11.0918 11.007 11.6694C11.7145 10.7792 12.5946 10.0411 13.5945 9.49963C12.9492 9.0147 12.4257 8.38621 12.0654 7.66392C11.705 6.94162 11.5178 6.14536 11.5185 5.33817ZM3.18514 6.90067C3.18514 6.21001 3.45951 5.54763 3.94788 5.05925C4.43626 4.57087 5.09864 4.29651 5.78931 4.29651C6.47997 4.29651 7.14235 4.57087 7.63073 5.05925C8.11911 5.54763 8.39347 6.21001 8.39347 6.90067C8.39347 7.59134 8.11911 8.25372 7.63073 8.7421C7.14235 9.23047 6.47997 9.50484 5.78931 9.50484C5.09864 9.50484 4.43626 9.23047 3.94788 8.7421C3.45951 8.25372 3.18514 7.59134 3.18514 6.90067Z" fill="#201F25"/>
</svg>
