<svg width="20" height="20" viewBox="0 0 20 20" fill="none" xmlns="http://www.w3.org/2000/svg">
<path fill-rule="evenodd" clip-rule="evenodd" d="M13.5406 1.86125C14.1266 1.2754 14.9213 0.946289 15.75 0.946289C16.5786 0.946289 17.3733 1.2754 17.9593 1.86125L18.1385 2.04041C18.7244 2.62644 19.0535 3.42115 19.0535 4.24979C19.0535 5.07843 18.7244 5.87314 18.1385 6.45916L16.3291 8.27062L6.06976 18.529C5.93642 18.6623 5.76936 18.757 5.58642 18.8029L1.41976 19.8446C1.24519 19.8883 1.06227 19.8861 0.888833 19.8381C0.715394 19.7901 0.557347 19.6979 0.430097 19.5707C0.302847 19.4434 0.210734 19.2854 0.162735 19.112C0.114737 18.9385 0.11249 18.7556 0.156213 18.581L1.19788 14.4144C1.24376 14.2314 1.33845 14.0644 1.47184 13.931L11.7906 3.61229L13.5406 1.86229V1.86125ZM16.4864 3.33416C16.2911 3.13888 16.0262 3.02918 15.75 3.02918C15.4738 3.02918 15.2088 3.13888 15.0135 3.33416L13.9864 4.36125L15.6062 6.04562L16.6656 4.98625C16.8609 4.7909 16.9706 4.526 16.9706 4.24979C16.9706 3.97358 16.8609 3.70867 16.6656 3.51333L16.4864 3.33416ZM14.1323 7.51854L12.5125 5.83521L3.14892 15.1998L2.59788 17.4019L4.80101 16.8508L14.1333 7.51854H14.1323Z" fill="#201F25"/>
</svg>
